<svg width="20" height="21" viewBox="0 0 20 21" fill="none" xmlns="http://www.w3.org/2000/svg">
<path fill-rule="evenodd" clip-rule="evenodd" d="M2 8.43004C2 5.11633 4.68629 2.43004 8 2.43004C11.3137 2.43004 14 5.11633 14 8.43004C14 11.7437 11.3137 14.43 8 14.43C4.68629 14.43 2 11.7437 2 8.43004ZM8 0.430038C3.58172 0.430038 0 4.01176 0 8.43004C0 12.8483 3.58172 16.43 8 16.43C9.84871 16.43 11.551 15.803 12.9056 14.7499L18.2929 20.1371C18.6834 20.5277 19.3166 20.5277 19.7071 20.1371C20.0976 19.7466 20.0976 19.1135 19.7071 18.7229L14.3199 13.3357C15.3729 11.981 16 10.2787 16 8.43004C16 4.01176 12.4183 0.430038 8 0.430038Z" fill="#212121"/>
</svg>
