<svg width="16" height="20" viewBox="0 0 16 20" fill="none" xmlns="http://www.w3.org/2000/svg">
<path fill-rule="evenodd" clip-rule="evenodd" d="M5.87868 2.87868C6.44129 2.31607 7.20435 2 8 2C8.79565 2 9.55871 2.31607 10.1213 2.87868C10.6839 3.44129 11 4.20435 11 5V8H5V5C5 4.20435 5.31607 3.44129 5.87868 2.87868ZM3 8V5C3 3.67392 3.52678 2.40215 4.46447 1.46447C5.40215 0.526784 6.67392 0 8 0C9.32608 0 10.5979 0.526784 11.5355 1.46447C12.4732 2.40215 13 3.67392 13 5V8C14.6569 8 16 9.34315 16 11V17C16 18.6569 14.6569 20 13 20H3C1.34315 20 0 18.6569 0 17V11C0 9.34315 1.34315 8 3 8ZM12 10H13C13.5523 10 14 10.4477 14 11V17C14 17.5523 13.5523 18 13 18H3C2.44772 18 2 17.5523 2 17V11C2 10.4477 2.44772 10 3 10H4H12ZM6 14C6 12.8954 6.89543 12 8 12C9.10457 12 10 12.8954 10 14C10 15.1046 9.10457 16 8 16C6.89543 16 6 15.1046 6 14Z" fill="#212121"/>
<path fill-rule="evenodd" clip-rule="evenodd" d="M5.87868 2.87868C6.44129 2.31607 7.20435 2 8 2C8.79565 2 9.55871 2.31607 10.1213 2.87868C10.6839 3.44129 11 4.20435 11 5V8H5V5C5 4.20435 5.31607 3.44129 5.87868 2.87868ZM3 8V5C3 3.67392 3.52678 2.40215 4.46447 1.46447C5.40215 0.526784 6.67392 0 8 0C9.32608 0 10.5979 0.526784 11.5355 1.46447C12.4732 2.40215 13 3.67392 13 5V8C14.6569 8 16 9.34315 16 11V17C16 18.6569 14.6569 20 13 20H3C1.34315 20 0 18.6569 0 17V11C0 9.34315 1.34315 8 3 8ZM12 10H13C13.5523 10 14 10.4477 14 11V17C14 17.5523 13.5523 18 13 18H3C2.44772 18 2 17.5523 2 17V11C2 10.4477 2.44772 10 3 10H4H12ZM6 14C6 12.8954 6.89543 12 8 12C9.10457 12 10 12.8954 10 14C10 15.1046 9.10457 16 8 16C6.89543 16 6 15.1046 6 14Z" fill="black" fill-opacity="0.2"/>
<path fill-rule="evenodd" clip-rule="evenodd" d="M5.87868 2.87868C6.44129 2.31607 7.20435 2 8 2C8.79565 2 9.55871 2.31607 10.1213 2.87868C10.6839 3.44129 11 4.20435 11 5V8H5V5C5 4.20435 5.31607 3.44129 5.87868 2.87868ZM3 8V5C3 3.67392 3.52678 2.40215 4.46447 1.46447C5.40215 0.526784 6.67392 0 8 0C9.32608 0 10.5979 0.526784 11.5355 1.46447C12.4732 2.40215 13 3.67392 13 5V8C14.6569 8 16 9.34315 16 11V17C16 18.6569 14.6569 20 13 20H3C1.34315 20 0 18.6569 0 17V11C0 9.34315 1.34315 8 3 8ZM12 10H13C13.5523 10 14 10.4477 14 11V17C14 17.5523 13.5523 18 13 18H3C2.44772 18 2 17.5523 2 17V11C2 10.4477 2.44772 10 3 10H4H12ZM6 14C6 12.8954 6.89543 12 8 12C9.10457 12 10 12.8954 10 14C10 15.1046 9.10457 16 8 16C6.89543 16 6 15.1046 6 14Z" fill="black" fill-opacity="0.2"/>
</svg>
