<svg width="24" height="25" viewBox="0 0 24 25" fill="none" xmlns="http://www.w3.org/2000/svg">
<path d="M10 4.5C7.79086 4.5 6 6.29086 6 8.5C6 10.7091 7.79086 12.5 10 12.5C12.2091 12.5 14 10.7091 14 8.5C14 6.29086 12.2091 4.5 10 4.5ZM4 8.5C4 5.18629 6.68629 2.5 10 2.5C13.3137 2.5 16 5.18629 16 8.5C16 11.8137 13.3137 14.5 10 14.5C6.68629 14.5 4 11.8137 4 8.5ZM16.8284 4.25736C17.219 3.86683 17.8521 3.86683 18.2426 4.25736C20.5858 6.6005 20.5858 10.3995 18.2426 12.7426C17.8521 13.1332 17.219 13.1332 16.8284 12.7426C16.4379 12.3521 16.4379 11.719 16.8284 11.3284C18.3905 9.76633 18.3905 7.23367 16.8284 5.67157C16.4379 5.28105 16.4379 4.64788 16.8284 4.25736ZM17.5299 17.2575C17.6638 16.7217 18.2067 16.3959 18.7425 16.5299C20.0705 16.8618 20.911 17.7109 21.3944 18.6778C21.8622 19.6133 22 20.6571 22 21.5C22 22.0523 21.5523 22.5 21 22.5C20.4477 22.5 20 22.0523 20 21.5C20 20.8429 19.8878 20.1367 19.6056 19.5722C19.339 19.0391 18.9295 18.6382 18.2575 18.4701C17.7217 18.3362 17.3959 17.7933 17.5299 17.2575ZM6.5 18.5C5.24054 18.5 4 19.7135 4 21.5C4 22.0523 3.55228 22.5 3 22.5C2.44772 22.5 2 22.0523 2 21.5C2 18.8682 3.89347 16.5 6.5 16.5H13.5C16.1065 16.5 18 18.8682 18 21.5C18 22.0523 17.5523 22.5 17 22.5C16.4477 22.5 16 22.0523 16 21.5C16 19.7135 14.7595 18.5 13.5 18.5H6.5Z" fill="#212121"/>
</svg>
